<?xml version="1.0" encoding="utf-8"?>
<!-- Generator: Adobe Illustrator 16.0.0, SVG Export Plug-In . SVG Version: 6.00 Build 0)  -->
<!DOCTYPE svg PUBLIC "-//W3C//DTD SVG 1.1//EN" "http://www.w3.org/Graphics/SVG/1.1/DTD/svg11.dtd">
<svg version="1.1" id="Layer_1" xmlns="http://www.w3.org/2000/svg" xmlns:xlink="http://www.w3.org/1999/xlink" x="0px" y="0px"
	 width="27px" height="27px" viewBox="0 0 27 27" enable-background="new 0 0 27 27" xml:space="preserve">
<path fill="#003245" d="M-80.49,0C-87.952,0-94,6.048-94,13.51c0,7.463,6.048,13.51,13.51,13.51c7.462,0,13.51-6.047,13.51-13.51
	C-66.98,6.048-73.029,0-80.49,0z M-72.467,21.533c-1.043,1.043-2.256,1.861-3.607,2.432c-0.343,0.146-0.692,0.271-1.044,0.383
	v-2.024c0-1.064-0.366-1.849-1.095-2.349c0.458-0.045,0.877-0.104,1.26-0.185c0.382-0.08,0.787-0.194,1.214-0.343
	c0.427-0.149,0.809-0.328,1.147-0.534c0.339-0.207,0.664-0.476,0.977-0.806c0.312-0.328,0.573-0.703,0.785-1.121
	c0.211-0.416,0.378-0.918,0.501-1.504c0.124-0.584,0.185-1.229,0.185-1.934c0-1.364-0.444-2.525-1.332-3.484
	c0.404-1.056,0.36-2.203-0.132-3.443l-0.33-0.039c-0.229-0.027-0.64,0.07-1.234,0.289c-0.593,0.221-1.259,0.582-1.998,1.083
	c-1.047-0.291-2.134-0.436-3.259-0.436c-1.134,0-2.216,0.146-3.246,0.436c-0.466-0.318-0.908-0.579-1.326-0.785
	s-0.752-0.348-1.002-0.423c-0.25-0.074-0.484-0.121-0.7-0.138c-0.215-0.017-0.354-0.021-0.415-0.013
	c-0.062,0.009-0.105,0.017-0.132,0.026c-0.493,1.25-0.537,2.398-0.132,3.443c-0.889,0.959-1.333,2.12-1.333,3.484
	c0,0.704,0.062,1.35,0.185,1.934c0.123,0.586,0.291,1.086,0.501,1.504c0.21,0.418,0.473,0.793,0.785,1.121
	c0.312,0.332,0.638,0.6,0.976,0.806c0.339,0.207,0.722,0.385,1.148,0.534c0.426,0.148,0.831,0.264,1.213,0.343
	c0.383,0.079,0.803,0.14,1.26,0.185c-0.722,0.492-1.082,1.274-1.082,2.349v2.062c-0.398-0.118-0.791-0.258-1.177-0.422
	c-1.351-0.571-2.564-1.389-3.607-2.432s-1.861-2.257-2.433-3.607c-0.591-1.397-0.891-2.882-0.891-4.416
	c0-1.534,0.3-3.019,0.891-4.416c0.571-1.351,1.39-2.564,2.433-3.607c1.042-1.043,2.256-1.861,3.607-2.432
	c1.397-0.591,2.884-0.892,4.416-0.892c1.532,0,3.019,0.301,4.416,0.892c1.351,0.571,2.564,1.389,3.607,2.432
	s1.861,2.257,2.432,3.607c0.591,1.396,0.891,2.882,0.891,4.416c0,1.534-0.3,3.019-0.891,4.416
	C-70.606,19.275-71.424,20.49-72.467,21.533z"/>
<path fill="#003245" d="M-47,13.5C-47,6.044-40.956,0-33.5,0C-26.045,0-20,6.044-20,13.5S-26.045,27-33.5,27
	C-40.956,27-47,20.956-47,13.5z M-22.531,13.5c0-6.058-4.911-10.969-10.969-10.969S-44.469,7.442-44.469,13.5
	c0,6.059,4.911,10.969,10.969,10.969S-22.531,19.559-22.531,13.5z M-34.693,21.443l-6.75-6.75c-0.659-0.659-0.659-1.729,0-2.387
	c0.659-0.659,1.728-0.659,2.387,0l3.869,3.869V6.75c0-0.932,0.756-1.688,1.688-1.688s1.688,0.755,1.688,1.688v9.426l3.869-3.869
	c0.659-0.659,1.728-0.659,2.387,0c0.329,0.33,0.494,0.762,0.494,1.193s-0.165,0.863-0.494,1.193l-6.75,6.75
	C-32.966,22.104-34.034,22.104-34.693,21.443z"/>
<path fill="#FFFFFF" d="M21.438,12.008L6.73,1.441C6.425,1.222,6.023,1.192,5.69,1.363c-0.334,0.171-0.544,0.515-0.544,0.89v21.136
	c0,0.375,0.21,0.719,0.544,0.889c0.144,0.074,0.3,0.111,0.456,0.111c0.206,0,0.41-0.062,0.584-0.188l14.708-10.568
	c0.262-0.188,0.416-0.49,0.416-0.812C21.854,12.498,21.698,12.196,21.438,12.008z"/>
<path fill="#003245" d="M-69.032,52.689c-0.171-0.334-0.515-0.543-0.89-0.543h-21.137c-0.375,0-0.719,0.209-0.89,0.543
	c-0.171,0.334-0.141,0.734,0.078,1.041l10.568,14.707c0.188,0.261,0.49,0.416,0.812,0.416c0.322,0,0.624-0.155,0.812-0.416
	L-69.11,53.73C-68.891,53.426-68.861,53.023-69.032,52.689z"/>
<g>
	<path fill="#FFFFFF" d="M-22.142,50.907h-22.762c-1.133,0-2.051,0.919-2.051,2.051c0,1.134,0.918,2.052,2.051,2.052h22.762
		c1.132,0,2.051-0.918,2.051-2.052C-20.091,51.826-21.01,50.907-22.142,50.907z"/>
	<path fill="#FFFFFF" d="M-22.142,58.215h-22.762c-1.133,0-2.051,0.919-2.051,2.053c0,1.131,0.918,2.051,2.051,2.051h22.762
		c1.132,0,2.051-0.92,2.051-2.051C-20.091,59.134-21.01,58.215-22.142,58.215z"/>
	<path fill="#FFFFFF" d="M-22.142,65.521h-22.762c-1.133,0-2.051,0.918-2.051,2.053c0,1.132,0.918,2.051,2.051,2.051h22.762
		c1.132,0,2.051-0.919,2.051-2.051C-20.091,66.439-21.01,65.521-22.142,65.521z"/>
</g>
<path fill="#003245" d="M14.893,69.133l11.354-11.354c0.428-0.426,0.685-1.022,0.685-1.535c0-0.514-0.257-1.023-0.685-1.451
	c-0.854-0.854-2.052-0.854-2.903,0l-9.9,9.9l-9.899-9.9c-0.854-0.854-2.049-0.854-2.902,0s-0.854,2.133,0,2.986l11.352,11.354
	c0.427,0.426,0.938,0.598,1.45,0.598C14.041,69.729,14.466,69.559,14.893,69.133z"/>
<path fill="#003245" d="M-77.662,109.812l7.016-7.018c0.781-0.779,0.781-2.047,0-2.828c-0.781-0.779-2.048-0.779-2.828,0
	l-7.016,7.018l-7.016-7.018c-0.781-0.779-2.048-0.779-2.828,0c-0.781,0.781-0.781,2.049,0,2.828l7.016,7.018l-7.016,7.016
	c-0.781,0.781-0.781,2.047,0,2.828c0.391,0.391,0.902,0.586,1.414,0.586c0.512,0,1.024-0.195,1.414-0.586l7.016-7.016l7.016,7.016
	c0.391,0.391,0.902,0.586,1.414,0.586s1.024-0.195,1.414-0.586c0.781-0.781,0.781-2.047,0-2.828L-77.662,109.812z"/>
</svg>
