<?xml version="1.0" encoding="utf-8"?>
<!-- Generator: Adobe Illustrator 16.0.0, SVG Export Plug-In . SVG Version: 6.00 Build 0)  -->
<!DOCTYPE svg PUBLIC "-//W3C//DTD SVG 1.1//EN" "http://www.w3.org/Graphics/SVG/1.1/DTD/svg11.dtd">
<svg version="1.1" id="Primer_plano" xmlns="http://www.w3.org/2000/svg" xmlns:xlink="http://www.w3.org/1999/xlink" x="0px"
	 y="0px" width="519.386px" height="136.441px" viewBox="0 0 519.386 136.441" enable-background="new 0 0 519.386 136.441"
	 xml:space="preserve">
<g>
	<path fill="#FFFFFF" d="M165.188,0c0,0-1.298,2.696-16.686,2.696s-60.81,0-63.775,0c-2.967,0-20.579,1.079-30.962,8.09
		c-10.382,7.011-11.309,12.403-11.68,17.978c-0.371,5.571,2.039,11.505,6.304,12.763c4.264,1.259,6.488,0.897,6.488,0.897
		s-2.039-1.438-1.668-7.188s2.317-14.112,11.958-19.19c7.972-4.18,13.812-6.155,22.154-6.337c8.343-0.18,24.102,0,24.102,0
		S97.75,19.729,93.486,30.695C89.222,41.661,80.74,59.997,75.642,73.974c-5.099,13.977-8.019,22.021-12.051,26.919
		c-4.032,4.897-5.933,4.897-5.933,4.897s12.514,2.518,18.633-3.057c6.117-5.572,10.613-15.189,15.479-28.762
		c4.867-13.573,12.932-37.798,18.633-47.863c5.701-10.067,7.879-12.763,9.548-14.606c1.668-1.843,1.668-1.843,1.668-1.843
		s19.699,0,25.631,0c5.934,0,10.846-0.988,14.229-4.089S165.188,0,165.188,0z"/>
	<path fill="#FFFFFF" d="M388.156,7.85c0,0-6.768-0.989-7.492,6.575c-0.666,6.938,4.826,7.338,8.992,6.518
		c3.043-0.601,5.277-6.544,3.566-10.021C391.494,7.4,388.156,7.85,388.156,7.85z"/>
	<path fill="#FFFFFF" d="M512.062,132.666c0,0-137.424-2.427-158.744-2.157c-21.32,0.271-195.5,0-195.5,0
		S34.159,131.317,18.4,131.902C2.643,132.486,0,133.925,0,133.925s37.96,2.519,76.847,2.519c38.887,0,232.348,0,232.348,0
		s131.861,0,154.342-0.271c22.479-0.27,55.852-2.693,55.852-2.693L512.062,132.666z"/>
	<path fill="#FFFFFF" d="M479.013,31.01c-1.391,0.092-20.02-2.427-31.842,4.092c-11.77,6.471-19.467,19.1-22.617,25.479
		c-3.152,6.382-3.338,8.854-11.17,14.606c-7.834,5.752-19.188,9.752-18.031-1.438c1.301-12.719,5.562-22.157,12.33-29.977
		c6.768-7.82,9.641-8.673,13.023-8.449c3.383,0.225,3.014,6.381,1.344,8.224c-1.668,1.845-3.568,3.91-3.568,3.91
		s4.449,1.663,10.383-4.09c5.932-5.752,5.098-10.966-0.418-12.628S410,28.807,400.683,37.21
		c-9.314,8.404-16.777,20.313-18.678,26.473c-1.902,6.156-1.484,9.48-1.484,9.48s-2.316,4.045-8.666,6.337s-8.898,0.811-5.934-7.188
		c2.967-8,13.117-27.729,15.666-33.077c2.553-5.349,3.758-7.686,3.758-7.686s-15.896-0.854-19.004,7.687
		c-3.291,9.078-11.17,24.853-13.533,30.604s-5.053,18.695,4.449,19.729c9.502,1.033,13.58-2.021,16.732-4.09
		c3.148-2.066,6.535-5.572,6.535-5.572s1.25,9.258,11.861,9.887c10.615,0.629,15.713-3.056,19.1-5.752
		c3.383-2.695,7.137-6.649,7.137-6.649s-1.668,9.933,5.561,11.772c7.23,1.843,14.602-0.045,19.697-4.941
		c5.102-4.898,8.25-9.35,8.25-9.35s-2.688,13.078,1.531,16.765c4.217,3.686,9.312,3.908,9.312,3.908s-2.92-8.629,0.418-19.505
		c3.014-9.887,11.865-29.569,14.414-35.144C480.359,35.324,483.556,30.695,479.013,31.01z M462.052,46.919
		c-4.404,9.617-13.719,27.234-20.766,32.043c-7.045,4.81-9.637,0.539-8.156-5.393c1.482-5.935,6.441-17.842,16.361-29.482
		c9.918-11.64,18.027-8.134,18.027-8.134S466.455,37.301,462.052,46.919z"/>
	<g>
		<path fill="#FFFFFF" d="M289.882,24.448c-0.004,0-0.019,0-0.019,0S289.867,24.455,289.882,24.448z"/>
		<path fill="#FFFFFF" d="M351.046,51.322c3.477-7.19,7.879-18.471-1.252-20.628s-18.539,5.348-21.506,9.393
			S319.9,50.154,319.9,50.154s4.311-8.898,3.707-16.313c-0.512-6.2-10.613-2.65-18.771-0.493c-8.157,2.155-17.565,4.09-17.565,4.09
			s0.229,8.896-1.481,15.594c-1.717,6.696-6.164,19.864-14.322,26.111c-8.156,6.246-14.043,1.932-12.097-7.191
			c1.947-9.123,4.636-19.908,13.07-28.762c8.436-8.854,13.486-9.078,13.486-9.078l0.095-2.786h-35.69
			c0,0,4.172-10.741,12.839-18.156c8.666-7.416,16.547-6.562,22.896-6.156c6.351,0.404,12.235,4.72,8.019,11.279
			c-3.566,5.55-4.115,6.114-4.201,6.157c0.187-0.001,6.172-0.083,10.552-5.347c4.448-5.35,4.448-14.831-3.802-16.854
			c-8.25-2.021-27.346-2.021-36.661,3.73c-9.316,5.751-16.361,13.347-18.863,17.662c-2.503,4.312-3.986,8.808-3.986,8.808
			s-6.396,0.27-8.714,2.292c-2.318,2.021-2.132,2.652-2.132,2.652h7.879c0,0-3.985,16.401-11.865,26.291
			c-7.879,9.888-19.049,17.659-26.696,17.659s-6.813-5.752-6.813-9.842c-0.001-4.089,0.37-4.089,0.37-4.089
			s20.301-8.853,28.689-19.415c8.389-10.561,6.442-17.302,0.742-18.965c-5.701-1.663-18.54-0.45-30.174,12.718
			c-11.634,13.167-16.269,23.057-14.321,37.167c1.946,14.111,16.546,11.46,20.254,10.518c3.708-0.943,11.077-3.37,18.03-9.35
			c6.952-5.977,7.693-6.694,7.693-6.694s-6.442,22.021-12.375,27.549l-5.933,5.526c0,0,14.554,1.707,19.513-5.258
			c4.959-6.967,8.945-11.506,14.368-28.538c5.423-17.031,11.865-35.729,11.865-35.729h18.771c0,0-14.044,10.337-18.771,23.999
			s-3.43,27.055,5.933,28.492c9.361,1.438,19.979,0,30.127-14.605c10.148-14.604,12.422-22.246,13.627-26.111
			c1.205-3.863,0.741-9.616,0.741-9.616l12.146-1.618c0,0,0.926,3.056-5.238,17.437s-11.633,26.381-12.606,28.538
			c-0.974,2.156-1.251,4.09-1.251,4.09h13.35c0,0,7.461-18.427,17.334-31.639c9.871-13.212,10.336-13.662,13.07-15.1
			c2.734-1.438,6.164-2.429,4.449,2.604s-10.104,19.415-13.07,28.043c-2.967,8.629-2.688,15.595,1.482,19.909
			c4.172,4.313,9.873,3.82,9.873,3.82s-4.172-4.767-0.232-14.606S347.523,58.557,351.046,51.322z M192.117,56.356
			c1.714-4.089,7.416-16.538,15.063-20.583s7.416,6.471-0.974,15.325c-8.389,8.853-15.341,10.561-15.341,10.561
			S190.401,60.446,192.117,56.356z"/>
	</g>
	<path fill="#FFFFFF" d="M189.195,8.898c-4.403,0.312-11.865-0.449-14.368,5.303c-2.503,5.753-14.322,32.807-19.281,43.368
		c-4.959,10.561-13.904,18.201-21.784,22.516c-7.879,4.314-15.573,0-14.09-6.472c1.484-6.471,1.53-6.201,1.53-6.201
		s16.269-6.604,24.565-15.639s11.727-17.395,6.812-21.167c-6.257-4.766-21.598,0.18-29.662,8.628
		c-8.065,8.449-15.527,16.628-17.196,32.672c-1.668,16.045,8.065,18.291,15.897,17.662c7.833-0.629,14.044-4.135,19.235-8.227
		c4.589-3.64,7.045-5.932,7.045-5.932s-1.529,9.887,2.734,15.01c4.265,5.124,9.131,4.314,9.131,4.314s-2.363-4.494-0.231-11.504
		c2.132-7.013,14.831-37.212,21.83-50.964s7.092-16.136,8.297-18.785C190.864,10.831,192.069,8.673,189.195,8.898z M130.75,44.402
		c4.681-8,10.568-9.888,12.283-8.854c1.715,1.034,2.966,6.786-4.45,14.606c-7.415,7.82-15.48,11.909-15.48,11.909
		C123.334,57.165,126.069,52.401,130.75,44.402z"/>
</g>
</svg>
