<?xml version="1.0" encoding="utf-8"?>
<!-- Generator: Adobe Illustrator 16.0.0, SVG Export Plug-In . SVG Version: 6.00 Build 0)  -->
<!DOCTYPE svg PUBLIC "-//W3C//DTD SVG 1.1//EN" "http://www.w3.org/Graphics/SVG/1.1/DTD/svg11.dtd">
<svg version="1.1" id="Layer_1" xmlns="http://www.w3.org/2000/svg" xmlns:xlink="http://www.w3.org/1999/xlink" x="0px" y="0px"
	 width="27px" height="27px" viewBox="0 0 27 27" enable-background="new 0 0 27 27" xml:space="preserve">
<path fill="#010202" d="M-33.49,0C-40.952,0-47,6.048-47,13.51c0,7.463,6.048,13.51,13.51,13.51c7.462,0,13.51-6.047,13.51-13.51
	C-19.98,6.048-26.029,0-33.49,0z M-25.467,21.533c-1.043,1.043-2.256,1.861-3.607,2.432c-0.343,0.146-0.692,0.271-1.044,0.383
	v-2.025c0-1.064-0.366-1.848-1.095-2.348c0.458-0.045,0.877-0.105,1.26-0.185c0.382-0.08,0.787-0.194,1.214-0.343
	c0.427-0.149,0.809-0.328,1.147-0.534c0.339-0.207,0.664-0.476,0.977-0.806c0.312-0.328,0.573-0.703,0.785-1.121
	c0.211-0.416,0.378-0.918,0.501-1.504c0.124-0.584,0.185-1.229,0.185-1.933c0-1.364-0.444-2.525-1.332-3.484
	c0.404-1.056,0.36-2.203-0.132-3.443l-0.33-0.039c-0.229-0.027-0.64,0.07-1.234,0.289c-0.593,0.221-1.259,0.582-1.998,1.083
	c-1.047-0.291-2.134-0.436-3.259-0.436c-1.134,0-2.216,0.146-3.246,0.436c-0.466-0.318-0.908-0.579-1.326-0.785
	s-0.752-0.348-1.002-0.423c-0.25-0.074-0.484-0.121-0.7-0.138c-0.215-0.017-0.354-0.021-0.415-0.013
	c-0.062,0.009-0.105,0.017-0.132,0.026c-0.493,1.25-0.537,2.398-0.132,3.443c-0.889,0.959-1.333,2.12-1.333,3.484
	c0,0.704,0.062,1.349,0.185,1.933c0.123,0.586,0.291,1.086,0.501,1.504c0.21,0.418,0.473,0.793,0.785,1.121
	c0.312,0.332,0.638,0.6,0.976,0.806c0.339,0.207,0.722,0.385,1.148,0.534c0.426,0.148,0.831,0.264,1.213,0.343
	c0.383,0.079,0.803,0.14,1.26,0.185c-0.722,0.492-1.082,1.274-1.082,2.348v2.063c-0.398-0.118-0.791-0.258-1.177-0.422
	c-1.351-0.571-2.564-1.389-3.607-2.432s-1.861-2.257-2.433-3.607c-0.591-1.397-0.891-2.882-0.891-4.416
	c0-1.534,0.3-3.019,0.891-4.416c0.571-1.351,1.39-2.564,2.433-3.607c1.042-1.043,2.256-1.861,3.607-2.432
	c1.397-0.591,2.884-0.892,4.416-0.892c1.532,0,3.019,0.301,4.416,0.892c1.351,0.571,2.564,1.389,3.607,2.432
	s1.861,2.257,2.432,3.607c0.591,1.396,0.891,2.882,0.891,4.416c0,1.534-0.3,3.019-0.891,4.416
	C-23.606,19.275-24.424,20.49-25.467,21.533z"/>
<path fill="#003245" d="M0,13.5C0,6.044,6.044,0,13.5,0C20.955,0,27,6.044,27,13.5S20.955,27,13.5,27C6.044,27,0,20.956,0,13.5z
	 M24.469,13.5c0-6.058-4.91-10.969-10.969-10.969C7.442,2.531,2.531,7.442,2.531,13.5c0,6.059,4.911,10.969,10.969,10.969
	C19.559,24.469,24.469,19.559,24.469,13.5z M12.307,21.443l-6.75-6.75c-0.659-0.659-0.659-1.729,0-2.387
	c0.659-0.659,1.728-0.659,2.387,0l3.869,3.869V6.75c0-0.932,0.756-1.688,1.688-1.688c0.933,0,1.688,0.755,1.688,1.688v9.426
	l3.869-3.869c0.658-0.659,1.728-0.659,2.387,0c0.328,0.33,0.494,0.762,0.494,1.193s-0.166,0.863-0.494,1.193l-6.75,6.75
	C14.034,22.104,12.966,22.104,12.307,21.443z"/>
<path fill="#010202" stroke="#010202" stroke-width="2" stroke-linecap="round" stroke-linejoin="round" stroke-miterlimit="10" d="
	M53.146,2.253L67.854,12.82L53.146,23.389V2.253z"/>
<path fill="#010202" stroke="#010202" stroke-width="2" stroke-linecap="round" stroke-linejoin="round" stroke-miterlimit="10" d="
	M-22.922,53.146L-33.49,67.854l-10.568-14.707H-22.922L-22.922,53.146z"/>
<line fill="none" stroke="#010202" stroke-width="4" stroke-linecap="round" stroke-linejoin="round" stroke-miterlimit="10" x1="2.404" y1="53.375" x2="24.598" y2="53.375"/>
<line fill="none" stroke="#010202" stroke-width="4" stroke-linecap="round" stroke-linejoin="round" stroke-miterlimit="10" x1="2.404" y1="60.5" x2="24.598" y2="60.5"/>
<line fill="none" stroke="#010202" stroke-width="4" stroke-linecap="round" stroke-linejoin="round" stroke-miterlimit="10" x1="2.404" y1="67.625" x2="24.598" y2="67.625"/>
<path fill="#010202" d="M61.893,69.133l11.354-11.354c0.428-0.426,0.684-1.022,0.684-1.535c0-0.514-0.256-1.023-0.684-1.451
	c-0.854-0.854-2.051-0.854-2.903,0l-9.899,9.9l-9.899-9.9c-0.854-0.854-2.049-0.854-2.901,0c-0.854,0.854-0.854,2.133,0,2.986
	l11.352,11.354c0.427,0.426,0.938,0.598,1.449,0.598C61.041,69.729,61.466,69.559,61.893,69.133z"/>
<line fill="none" stroke="#010202" stroke-width="4" stroke-linecap="round" stroke-linejoin="round" stroke-miterlimit="10" x1="-41.92" y1="101.383" x2="-25.061" y2="118.242"/>
<line fill="none" stroke="#010202" stroke-width="4" stroke-linecap="round" stroke-linejoin="round" stroke-miterlimit="10" x1="-41.92" y1="118.242" x2="-25.061" y2="101.383"/>
</svg>
