<?xml version="1.0" encoding="utf-8"?>
<!-- Generator: Adobe Illustrator 16.0.0, SVG Export Plug-In . SVG Version: 6.00 Build 0)  -->
<!DOCTYPE svg PUBLIC "-//W3C//DTD SVG 1.1//EN" "http://www.w3.org/Graphics/SVG/1.1/DTD/svg11.dtd">
<svg version="1.1" id="Layer_1" xmlns="http://www.w3.org/2000/svg" xmlns:xlink="http://www.w3.org/1999/xlink" x="0px" y="0px"
	 width="27px" height="27px" viewBox="0 0 27 27" enable-background="new 0 0 27 27" xml:space="preserve">
<path fill="#003245" d="M47.001,12.821c0-7.456,6.044-13.5,13.5-13.5c7.455,0,13.5,6.044,13.5,13.5c0,7.457-6.045,13.5-13.5,13.5
	C53.045,26.32,47.001,20.277,47.001,12.821z M71.47,12.821c0-6.058-4.91-10.969-10.969-10.969S49.532,6.763,49.532,12.821
	s4.91,10.968,10.969,10.968S71.47,18.879,71.47,12.821z M59.308,20.764l-6.75-6.75c-0.658-0.659-0.658-1.729,0-2.387
	c0.659-0.659,1.729-0.659,2.387,0l3.869,3.869V6.071c0-0.932,0.756-1.688,1.688-1.688s1.688,0.755,1.688,1.688v9.425l3.869-3.868
	c0.657-0.659,1.728-0.659,2.387,0c0.328,0.33,0.494,0.762,0.494,1.193c0,0.432-0.166,0.863-0.494,1.193l-6.75,6.75
	C61.035,21.424,59.967,21.424,59.308,20.764z"/>
<path fill="#010202" stroke="#010202" stroke-width="2" stroke-linecap="round" stroke-linejoin="round" stroke-miterlimit="10" d="
	M100.146,2.253l14.707,10.567l-14.707,10.569V2.253z"/>
<path fill="#010202" stroke="#010202" stroke-width="2" stroke-linecap="round" stroke-linejoin="round" stroke-miterlimit="10" d="
	M24.078,53.146L13.51,67.854L2.941,53.146H24.078z"/>
<line fill="none" stroke="#010202" stroke-width="4" stroke-linecap="round" stroke-linejoin="round" stroke-miterlimit="10" x1="49.404" y1="53.375" x2="71.598" y2="53.375"/>
<line fill="none" stroke="#010202" stroke-width="4" stroke-linecap="round" stroke-linejoin="round" stroke-miterlimit="10" x1="49.404" y1="60.5" x2="71.598" y2="60.5"/>
<line fill="none" stroke="#010202" stroke-width="4" stroke-linecap="round" stroke-linejoin="round" stroke-miterlimit="10" x1="49.404" y1="67.625" x2="71.598" y2="67.625"/>
<path fill="#010202" d="M108.893,69.133l11.354-11.354c0.428-0.426,0.685-1.022,0.685-1.535c0-0.514-0.257-1.023-0.685-1.451
	c-0.854-0.854-2.052-0.854-2.903,0l-9.898,9.9l-9.899-9.9c-0.854-0.854-2.049-0.854-2.901,0c-0.854,0.854-0.854,2.133,0,2.986
	l11.353,11.354c0.427,0.426,0.938,0.598,1.448,0.598C108.041,69.729,108.466,69.559,108.893,69.133z"/>
<line fill="none" stroke="#010202" stroke-width="4" stroke-linecap="round" stroke-linejoin="round" stroke-miterlimit="10" x1="5.08" y1="101.383" x2="21.939" y2="118.242"/>
<line fill="none" stroke="#010202" stroke-width="4" stroke-linecap="round" stroke-linejoin="round" stroke-miterlimit="10" x1="5.08" y1="118.242" x2="21.939" y2="101.383"/>
<circle fill="none" cx="13.5" cy="13.5" r="11.5"/>
<path fill="#003245" d="M13.5,0C6.038,0-0.01,6.048-0.01,13.51c0,7.463,6.048,13.51,13.51,13.51c7.463,0,13.51-6.047,13.51-13.51
	C27.01,6.048,20.961,0,13.5,0z M2.55,13.5c0-6.038,4.912-10.95,10.95-10.95S24.45,7.462,24.45,13.5
	c0,4.861-3.187,8.987-7.578,10.413v-1.59c0-1.064-0.366-1.849-1.095-2.349c0.458-0.045,0.877-0.104,1.26-0.185
	s0.787-0.194,1.215-0.343c0.426-0.149,0.809-0.328,1.146-0.534c0.339-0.207,0.664-0.476,0.977-0.806
	c0.312-0.328,0.573-0.703,0.785-1.121c0.211-0.416,0.378-0.918,0.501-1.504c0.124-0.584,0.185-1.229,0.185-1.934
	c0-1.364-0.442-2.525-1.332-3.484c0.404-1.056,0.36-2.203-0.131-3.443l-0.33-0.039c-0.229-0.027-0.641,0.07-1.233,0.289
	c-0.595,0.221-1.261,0.582-1.998,1.083c-1.047-0.291-2.136-0.436-3.259-0.436c-1.135,0-2.217,0.146-3.246,0.436
	C9.848,7.637,9.406,7.376,8.989,7.17S8.235,6.823,7.985,6.748c-0.25-0.074-0.483-0.121-0.7-0.138
	C7.071,6.592,6.932,6.588,6.87,6.597C6.809,6.605,6.766,6.614,6.739,6.623c-0.493,1.25-0.537,2.398-0.132,3.443
	c-0.889,0.959-1.333,2.12-1.333,3.484c0,0.704,0.062,1.349,0.185,1.933c0.123,0.586,0.291,1.086,0.502,1.504
	c0.209,0.418,0.473,0.793,0.784,1.121c0.312,0.332,0.638,0.601,0.976,0.807c0.34,0.207,0.723,0.385,1.148,0.534
	c0.426,0.147,0.831,0.264,1.213,0.343c0.383,0.079,0.803,0.141,1.26,0.186c-0.722,0.491-1.082,1.273-1.082,2.348v1.636
	C5.799,22.575,2.55,18.41,2.55,13.5z"/>
</svg>
