<?xml version="1.0" encoding="utf-8"?>
<!-- Generator: Adobe Illustrator 16.0.0, SVG Export Plug-In . SVG Version: 6.00 Build 0)  -->
<!DOCTYPE svg PUBLIC "-//W3C//DTD SVG 1.1//EN" "http://www.w3.org/Graphics/SVG/1.1/DTD/svg11.dtd">
<svg version="1.1" id="Layer_1" xmlns="http://www.w3.org/2000/svg" xmlns:xlink="http://www.w3.org/1999/xlink" x="0px" y="0px"
	 width="44.333px" height="47.564px" viewBox="0 0 44.333 47.564" enable-background="new 0 0 44.333 47.564" xml:space="preserve">
<g>
	<path fill="#2DC1D5" d="M34.902,45.879h-4.646c-1.837,0-3.331-1.492-3.331-3.327V29.035c0-0.903-0.73-1.639-1.63-1.639h-6.373
		c-0.899,0-1.63,0.735-1.63,1.639l-0.018,13.518c0,1.834-1.493,3.326-3.327,3.326H9.429c-1.833,0-3.325-1.492-3.325-3.327V29.035
		c0-0.903-0.733-1.639-1.636-1.639h-1.06c-1.826,0-3.311-1.481-3.311-3.303c0-0.812,0.289-1.575,0.815-2.175
		C0.939,21.884,0.968,21.85,1,21.819L18.191,4.634c1.059-1.058,2.481-1.625,3.964-1.64c1.496,0.001,2.901,0.583,3.957,1.641
		l17.096,17.076c0.021,0.017,0.04,0.035,0.06,0.054c0.62,0.615,0.961,1.442,0.961,2.329c0,1.821-1.484,3.303-3.31,3.303h-1.061
		c-0.899,0-1.631,0.735-1.631,1.639l-0.004,7.814c0,0.468-0.378,0.845-0.847,0.845l0,0c-0.468,0-0.847-0.378-0.846-0.845
		l0.004-7.814c0-1.837,1.491-3.33,3.323-3.33h1.061c0.892,0,1.617-0.724,1.617-1.611c0-0.422-0.156-0.813-0.44-1.106
		c-0.021-0.017-0.04-0.035-0.06-0.055L24.914,5.832c-0.737-0.739-1.716-1.146-2.759-1.146c0,0-0.001,0-0.002,0
		c-1.044,0-2.026,0.407-2.764,1.146L2.302,22.912c-0.016,0.017-0.031,0.034-0.048,0.05c-0.298,0.3-0.462,0.702-0.462,1.131
		c0,0.888,0.726,1.611,1.618,1.611h1.06c1.835,0,3.329,1.493,3.329,3.33v13.517c0,0.901,0.731,1.635,1.631,1.635h4.518
		c0.9,0,1.634-0.733,1.634-1.635l0.017-13.518c0-1.836,1.492-3.329,3.324-3.329h6.373c1.832,0,3.322,1.493,3.322,3.33v13.517
		c0,0.901,0.735,1.635,1.639,1.635h4.646c0.902,0,1.637-0.733,1.637-1.635c0-0.467,0.379-0.847,0.846-0.847
		c0.469,0,0.847,0.38,0.847,0.847C38.231,44.386,36.738,45.879,34.902,45.879z"/>
</g>
</svg>
