<?xml version="1.0" encoding="utf-8"?>
<!-- Generator: Adobe Illustrator 16.0.0, SVG Export Plug-In . SVG Version: 6.00 Build 0)  -->
<!DOCTYPE svg PUBLIC "-//W3C//DTD SVG 1.1//EN" "http://www.w3.org/Graphics/SVG/1.1/DTD/svg11.dtd">
<svg version="1.1" id="All_glyphs" xmlns="http://www.w3.org/2000/svg" xmlns:xlink="http://www.w3.org/1999/xlink" x="0px" y="0px"
	 width="47.001px" height="52px" viewBox="0 0 47.001 52" enable-background="new 0 0 47.001 52" xml:space="preserve">
<g>
	<path d="M45.244,41.757L31.456,26l13.788-15.758c2.343-2.344,2.343-6.143,0-8.486c-2.345-2.343-6.144-2.342-8.486,0.001
		L23.5,16.909L10.244,1.757C7.901-0.585,4.102-0.586,1.757,1.756c-2.343,2.344-2.343,6.143,0,8.486L15.545,26L1.757,41.757
		c-2.343,2.343-2.343,6.142-0.001,8.485c2.344,2.344,6.143,2.344,8.487,0L23.5,35.09l13.257,15.152c2.345,2.344,6.144,2.344,8.487,0
		C47.586,47.899,47.586,44.1,45.244,41.757z" fill="#003245"/>
</g>
</svg>
