<?xml version="1.0" encoding="utf-8"?>
<!-- Generator: Adobe Illustrator 16.0.0, SVG Export Plug-In . SVG Version: 6.00 Build 0)  -->
<!DOCTYPE svg PUBLIC "-//W3C//DTD SVG 1.1//EN" "http://www.w3.org/Graphics/SVG/1.1/DTD/svg11.dtd">
<svg version="1.1" id="Layer_1" xmlns="http://www.w3.org/2000/svg" xmlns:xlink="http://www.w3.org/1999/xlink" x="0px" y="0px"
	 width="27px" height="27px" viewBox="0 0 27 27" enable-background="new 0 0 27 27" xml:space="preserve">
<path fill="#FFFFFF" d="M-33.49-47C-40.952-47-47-40.952-47-33.49s6.048,13.51,13.51,13.51s13.51-6.048,13.51-13.51
	S-26.029-47-33.49-47z M-25.467-25.467c-1.043,1.043-2.256,1.861-3.607,2.432c-0.343,0.146-0.692,0.272-1.044,0.383v-2.026
	c0-1.064-0.366-1.847-1.095-2.348c0.458-0.044,0.877-0.105,1.26-0.184c0.382-0.08,0.787-0.194,1.214-0.343s0.809-0.328,1.147-0.534
	c0.339-0.207,0.664-0.475,0.977-0.805c0.312-0.329,0.573-0.704,0.785-1.121c0.211-0.417,0.378-0.919,0.501-1.505
	c0.124-0.584,0.185-1.228,0.185-1.932c0-1.364-0.444-2.525-1.332-3.484c0.404-1.056,0.36-2.203-0.132-3.443l-0.33-0.039
	c-0.229-0.027-0.64,0.07-1.234,0.289c-0.593,0.221-1.259,0.582-1.998,1.083c-1.047-0.291-2.134-0.436-3.259-0.436
	c-1.134,0-2.216,0.146-3.246,0.436c-0.466-0.318-0.908-0.579-1.326-0.785s-0.752-0.348-1.002-0.423
	c-0.25-0.074-0.484-0.121-0.7-0.138c-0.215-0.017-0.354-0.021-0.415-0.013c-0.062,0.009-0.105,0.017-0.132,0.026
	c-0.493,1.25-0.537,2.398-0.132,3.443c-0.889,0.959-1.333,2.12-1.333,3.484c0,0.704,0.062,1.348,0.185,1.932
	c0.123,0.586,0.291,1.087,0.501,1.505s0.473,0.792,0.785,1.121c0.312,0.331,0.638,0.599,0.976,0.805
	c0.339,0.207,0.722,0.385,1.148,0.534c0.426,0.149,0.831,0.264,1.213,0.343c0.383,0.079,0.803,0.14,1.26,0.184
	c-0.722,0.493-1.082,1.275-1.082,2.348v2.064c-0.398-0.119-0.791-0.258-1.177-0.422c-1.351-0.571-2.564-1.389-3.607-2.432
	c-1.043-1.043-1.861-2.257-2.433-3.607c-0.591-1.398-0.891-2.882-0.891-4.416s0.3-3.019,0.891-4.416
	c0.571-1.351,1.39-2.564,2.433-3.607c1.042-1.043,2.256-1.861,3.607-2.432c1.397-0.591,2.884-0.892,4.416-0.892
	s3.019,0.301,4.416,0.892c1.351,0.571,2.564,1.389,3.607,2.432s1.861,2.257,2.432,3.607c0.591,1.396,0.891,2.882,0.891,4.416
	s-0.3,3.018-0.891,4.416C-23.606-27.724-24.424-26.51-25.467-25.467z"/>
<path fill="#FFFFFF" d="M0-33.5C0-40.956,6.044-47,13.5-47C20.955-47,27-40.956,27-33.5S20.955-20,13.5-20C6.044-20,0-26.044,0-33.5
	z M24.469-33.5c0-6.058-4.911-10.969-10.969-10.969S2.531-39.558,2.531-33.5S7.442-22.531,13.5-22.531S24.469-27.442,24.469-33.5z
	 M12.307-25.557l-6.75-6.75c-0.659-0.659-0.659-1.728,0-2.387s1.728-0.659,2.387,0l3.869,3.869v-9.426
	c0-0.932,0.756-1.688,1.688-1.688s1.688,0.755,1.688,1.688v9.426l3.869-3.869c0.659-0.659,1.728-0.659,2.387,0
	c0.329,0.33,0.494,0.762,0.494,1.193s-0.165,0.863-0.494,1.193l-6.75,6.75C14.034-24.897,12.966-24.897,12.307-25.557z"/>
<path fill="#FFFFFF" d="M68.438-34.992L53.73-45.559c-0.306-0.219-0.707-0.249-1.04-0.078c-0.334,0.171-0.544,0.515-0.544,0.89
	v21.135c0,0.375,0.21,0.719,0.544,0.89c0.144,0.074,0.3,0.11,0.456,0.11c0.206,0,0.41-0.063,0.584-0.188l14.707-10.568
	c0.261-0.188,0.416-0.49,0.416-0.812S68.698-34.804,68.438-34.992z"/>
<path fill="#FFFFFF" d="M-22.032,5.69c-0.171-0.334-0.515-0.544-0.89-0.544h-21.137c-0.375,0-0.719,0.21-0.89,0.544
	c-0.171,0.334-0.141,0.735,0.078,1.04l10.568,14.707c0.188,0.261,0.49,0.416,0.812,0.416s0.624-0.155,0.812-0.416L-22.11,6.73
	C-21.891,6.426-21.861,6.024-22.032,5.69z"/>
<g>
	<path fill="#FFFFFF" d="M24.858,3.907H2.096c-1.133,0-2.051,0.919-2.051,2.051c0,1.134,0.918,2.052,2.051,2.052h22.762
		c1.132,0,2.051-0.918,2.051-2.052C26.909,4.826,25.99,3.907,24.858,3.907z"/>
	<path fill="#FFFFFF" d="M24.858,11.215H2.096c-1.133,0-2.051,0.919-2.051,2.052c0,1.132,0.918,2.051,2.051,2.051h22.762
		c1.132,0,2.051-0.919,2.051-2.051C26.909,12.134,25.99,11.215,24.858,11.215z"/>
	<path fill="#FFFFFF" d="M24.858,18.522H2.096c-1.133,0-2.051,0.918-2.051,2.052c0,1.132,0.918,2.051,2.051,2.051h22.762
		c1.132,0,2.051-0.919,2.051-2.051C26.909,19.44,25.99,18.522,24.858,18.522z"/>
</g>
<path fill="#FFFFFF" d="M61.893,22.133l11.353-11.354c0.428-0.425,0.683-1.022,0.683-1.535s-0.255-1.024-0.683-1.451
	c-0.854-0.854-2.05-0.854-2.903,0l-9.9,9.9l-9.899-9.9c-0.854-0.854-2.049-0.854-2.902,0s-0.854,2.133,0,2.986l11.352,11.354
	c0.427,0.426,0.938,0.597,1.45,0.597C61.041,22.729,61.466,22.559,61.893,22.133z"/>
<path fill="#FFFFFF" d="M-30.662,62.812l7.016-7.016c0.781-0.781,0.781-2.047,0-2.828s-2.048-0.781-2.828,0l-7.016,7.016
	l-7.016-7.016c-0.781-0.781-2.048-0.781-2.828,0c-0.781,0.781-0.781,2.047,0,2.828l7.016,7.016l-7.016,7.016
	c-0.781,0.781-0.781,2.047,0,2.828c0.391,0.391,0.902,0.586,1.414,0.586s1.024-0.195,1.414-0.586l7.016-7.016l7.016,7.016
	c0.391,0.391,0.902,0.586,1.414,0.586s1.024-0.195,1.414-0.586c0.781-0.781,0.781-2.047,0-2.828L-30.662,62.812z"/>
</svg>
