<?xml version="1.0" encoding="utf-8"?>
<!-- Generator: Adobe Illustrator 16.0.0, SVG Export Plug-In . SVG Version: 6.00 Build 0)  -->
<!DOCTYPE svg PUBLIC "-//W3C//DTD SVG 1.1//EN" "http://www.w3.org/Graphics/SVG/1.1/DTD/svg11.dtd">
<svg version="1.1" id="Capa_1" xmlns="http://www.w3.org/2000/svg" xmlns:xlink="http://www.w3.org/1999/xlink" x="0px" y="0px"
	 width="77.929px" height="16.898px" viewBox="0 0 77.929 16.898" enable-background="new 0 0 77.929 16.898" xml:space="preserve">
<g>
	<path fill="#005E85" d="M35.103,5.408h-0.364c-1.049,0-1.744,0.279-2.079,0.691H32.65c-0.336-0.412-1.076-0.691-2.123-0.691h-0.373
		c-1.184,0-2.15,0.413-2.541,1.253c-0.168,0.362-0.221,0.848-0.221,1.374v4.391c0,0.096,0.057,0.163,0.155,0.163h1.19
		c0.095,0,0.153-0.067,0.153-0.163l0.003-3.656c0-0.525,0.013-0.904,0.037-1.138c0.07-0.614,0.525-0.914,1.394-0.914h0.098
		c0.87,0,1.345,0.3,1.412,0.914c0.027,0.234,0.04,0.613,0.04,1.138v3.659c0,0.096,0.057,0.16,0.157,0.16h1.194
		c0.099,0,0.152-0.077,0.152-0.171V8.77c0-0.525,0.014-0.904,0.04-1.138c0.071-0.614,0.542-0.914,1.414-0.914h0.099
		c0.868,0,1.322,0.3,1.391,0.914c0.028,0.234,0.037,0.613,0.037,1.138v3.659c0,0.099,0.058,0.16,0.158,0.16h1.191
		c0.098,0,0.153-0.077,0.153-0.171V8.035c0-0.526-0.056-1.011-0.222-1.374C37.254,5.821,36.281,5.408,35.103,5.408z M42.457,5.408
		H42.27c-1.568,0-2.534,0.487-2.9,1.71c-0.145,0.479-0.227,1.031-0.227,1.945c0,0.911,0.082,1.462,0.227,1.941
		c0.366,1.224,1.332,1.712,2.9,1.712h0.188c1.567,0,2.533-0.488,2.9-1.712c0.143-0.479,0.223-1.031,0.223-1.941
		c0-0.914-0.08-1.466-0.223-1.945C44.99,5.895,44.024,5.408,42.457,5.408z M44.002,10.091c-0.116,1.141-0.693,1.319-1.62,1.319
		h-0.038c-0.924,0-1.504-0.178-1.62-1.319c-0.034-0.346-0.063-0.63-0.063-1.027c0-0.399,0.029-0.686,0.063-1.03
		c0.116-1.142,0.696-1.321,1.62-1.321h0.038c0.927,0,1.504,0.179,1.62,1.321c0.035,0.344,0.062,0.631,0.062,1.03
		C44.064,9.46,44.037,9.745,44.002,10.091z M52.424,5.542c0,0-1.213,0-1.215,0c-0.142,0-0.182,0.046-0.191,0.174
		c-0.054,0.897-0.247,1.941-0.521,2.874c-0.287,0.965-0.648,1.883-0.998,2.565c-0.352-0.683-0.715-1.601-1-2.565
		c-0.279-0.939-0.471-1.991-0.528-2.892c-0.005-0.129-0.075-0.155-0.198-0.155h-1.225c-0.132,0-0.167,0.061-0.157,0.192
		c0.171,2.418,0.924,4.296,2.229,6.736c0.045,0.086,0.113,0.118,0.229,0.118h1.307c0.111,0,0.158-0.038,0.208-0.124
		c0.847-1.593,2.14-4.315,2.227-6.781C52.591,5.584,52.551,5.542,52.424,5.542z M71.63,5.697c-0.399-0.173-1.012-0.289-1.802-0.289
		h-0.1c-0.48,0-1.135,0.06-1.768,0.172c-0.107,0.02-0.148,0.074-0.148,0.198v0.901c0,0.112,0.058,0.152,0.186,0.132
		c0.554-0.083,1.127-0.141,1.566-0.141h0.059c0.625,0,1.126,0.058,1.43,0.262c0.3,0.202,0.45,0.504,0.45,1.16v0.195
		c-0.456-0.097-1.006-0.161-1.509-0.161h-0.133c-0.842,0-1.628,0.202-2.132,0.671c-0.386,0.363-0.64,0.905-0.64,1.6v0.061
		c0,1.396,0.965,2.257,2.919,2.257h0.35c0.77,0,1.504-0.229,1.943-0.594c0.507-0.418,0.701-1.038,0.701-2.029v-2.02
		C73.003,6.696,72.466,6.058,71.63,5.697z M71.503,10.058c0,0.529-0.016,0.839-0.21,1.061c-0.2,0.23-0.562,0.344-1.049,0.344h-0.239
		c-0.904,0-1.425-0.363-1.425-1.056c0-0.318,0.125-0.601,0.316-0.768c0.23-0.197,0.564-0.294,1.14-0.294h0.127
		c0.437,0,0.931,0.044,1.34,0.152V10.058z M77.775,5.408h-0.809c-1.161,0-2.066,0.403-2.454,1.242
		c-0.17,0.363-0.221,0.851-0.221,1.375v4.423c0,0.101,0.048,0.14,0.147,0.14h1.206c0.101,0,0.146-0.04,0.146-0.14V8.748
		c0-0.521,0.012-0.902,0.036-1.138c0.068-0.612,0.439-0.901,1.31-0.901h0.642c0.104,0,0.149-0.055,0.149-0.154V5.561
		C77.929,5.458,77.878,5.408,77.775,5.408z M53.979,5.543c-0.101,0-0.152,0.039-0.152,0.137l0.004,6.768
		c0,0.101,0.048,0.14,0.148,0.14h1.204c0.103,0,0.148-0.04,0.148-0.14V5.681c0-0.098-0.048-0.137-0.148-0.137H53.979z
		 M65.812,11.289c-0.479,0-0.772-0.115-0.952-0.306c-0.241-0.249-0.289-0.656-0.289-1.139V6.792h1.327
		c0.102,0,0.15-0.039,0.15-0.138V5.68c0-0.099-0.049-0.136-0.15-0.136h-1.327V4.279c0-0.098-0.051-0.136-0.147-0.136h-1.21
		c-0.099,0-0.146,0.039-0.146,0.136v5.647c0,0.982,0.195,1.611,0.627,2.04c0.408,0.401,1.04,0.623,1.957,0.623h0.318
		c0.104,0,0.16-0.057,0.16-0.147v-1.006c0-0.09-0.056-0.146-0.16-0.146H65.812z M59.914,8.448c-0.385-0.143-0.687-0.253-0.953-0.352
		c-0.602-0.218-0.77-0.425-0.77-0.734c0-0.513,0.502-0.712,1.309-0.712l0.058,0.003c0.466,0,1.029,0.064,1.714,0.191
		c0.125,0.021,0.197-0.005,0.197-0.137V5.785c0-0.123-0.033-0.155-0.159-0.183c-0.446-0.095-1.249-0.194-1.701-0.194H59.5
		c-0.943,0-1.645,0.176-2.111,0.583c-0.378,0.33-0.63,0.828-0.63,1.425l-0.004,0.043c0,0.553,0.194,0.997,0.521,1.303
		c0.31,0.282,0.725,0.461,1.272,0.667c0.326,0.12,0.595,0.22,0.918,0.333c0.691,0.247,0.985,0.442,0.985,0.863
		c0,0.545-0.461,0.834-1.502,0.834h-0.036c-0.587,0-1.259-0.114-1.851-0.304c-0.122-0.038-0.191,0.006-0.191,0.13v0.899
		c0,0.112,0.021,0.183,0.145,0.226c0.567,0.197,1.346,0.306,1.982,0.306h0.046c1.851,0,2.854-0.824,2.854-2.152v-0.021
		c0-0.512-0.171-0.978-0.483-1.288C61.105,8.954,60.635,8.717,59.914,8.448z"/>
	<path fill="#82BC00" d="M22.746,6.065C22.363,1.844,20.721,0,18.949,0c-0.087,0-0.166,0.003-0.253,0.013
		c-1.29,0.123-2.076,0.797-2.076,0.797c-1.407,1.122-1.993,2.747-2.615,4.468c-0.04,0.105-0.075,0.21-0.112,0.317l-0.061,0.164
		c-0.396,1.096-0.845,2.337-2.132,2.337h-0.01c-1.407-0.002-1.927-0.778-2.646-1.855L8.971,6.136C8.81,5.897,8.651,5.646,8.482,5.38
		C7.501,3.836,6.271,1.911,4.416,1.911H4.414c-0.111,0-2.713,0.035-3.762,3.269c-0.973,3.016-0.841,6.807,0.289,9.536
		c0.447,1.084,0.998,1.903,1.508,2.111c0.124,0.051,0.244,0.071,0.359,0.071c0.321,0,0.592-0.169,0.704-0.346
		c0.51-0.792,0.061-1.892-0.322-3.021c-0.265-0.777-0.597-1.426-0.845-2.764C2.139,9.661,2.244,8.562,2.594,8.488
		c0.01-0.002,0.018-0.002,0.028-0.002c0.232,0,0.851,0.501,1.268,0.982c0.838,0.961,1.527,2.306,1.625,2.488
		c0.964,1.746,1.802,3.306,3.642,4.039c0.457,0.185,0.912,0.278,1.424,0.298c0.062,0.004,0.134,0.004,0.202,0.004
		c1.055,0,2.171-0.347,2.909-0.905c0.431-0.322,0.86-0.857,1.176-1.467c0.284-0.542,0.528-1.14,0.769-1.874
		c0.108-0.333,0.206-0.665,0.304-0.985c0.266-0.863,0.516-1.708,0.915-2.505c0.669-1.346,2.089-2.435,2.784-2.435
		c0.252,0,0.409,0.143,0.404,0.468c-0.02,0.996-0.375,5.061,0.066,6.209c0.206,0.541,0.625,0.841,1.073,0.841
		c0.394,0,0.804-0.229,1.113-0.722c0.413-0.66,0.503-2.417,0.532-2.813C22.888,9.368,22.936,7.551,22.746,6.065z M2.433,15.433
		c0.003,0.006,0.006,0.011,0.01,0.018c0.022,0.03,0.044,0.061,0.066,0.088c0.155,0.212,0.295,0.373,0.411,0.497
		c0,0.002,0,0.002,0,0.002c0.146,0.158,0.002,0.374-0.223,0.31c-0.014-0.005-0.031-0.009-0.046-0.014
		c-0.276-0.113-0.765-0.722-1.215-1.821c-1.089-2.625-1.199-6.311-0.275-9.167c0.926-2.867,3.157-2.9,3.255-2.9
		c0.048,0,0.096,0.001,0.14,0.004c0.15,0.011,0.148,0.066,0,0.079C3.604,2.612,2.742,3.311,2.271,3.97
		c-0.94,1.327-1.636,4.74-1.105,7.5C1.441,12.917,1.911,14.661,2.433,15.433z M14.354,13.834c-1.104,1.957-3.521,2.208-5.001,1.665
		c-1.649-0.605-2.42-2.074-3.326-3.721l-0.045-0.079l-0.033-0.067C5.383,10.576,4.829,9.73,4.292,9.12
		c-0.103-0.122-1.033-1.168-1.67-1.168c-0.136,0-0.274,0.029-0.425,0.103C1.999,8.15,1.943,8.119,2.037,7.928
		C2.24,7.531,2.625,7.473,2.872,7.473c0.71,0,1.27,0.48,1.585,0.787c1.405,1.407,2.077,3.16,2.923,4.456
		c0.773,1.182,1.56,1.956,2.557,2.262c1.186,0.363,2.854,0.135,4.108-1.123C14.443,13.458,14.946,12.787,14.354,13.834z
		 M18.117,0.764c-0.903,0.454-1.602,1.54-2.116,2.576c-0.655,1.315-1.67,4.674-1.869,5.132c-0.199,0.456-0.667,1.164-1.757,1.178
		c-1.076,0.012-1.876-0.247-2.84-1.645C9.292,7.656,9.238,7.468,9.659,7.889c0.423,0.422,1.104,0.739,2.029,0.742H11.7
		c1.66,0,2.224-1.556,2.633-2.691l0.058-0.163c0.025-0.066,0.051-0.132,0.073-0.199l0.04-0.118l0.008-0.02
		c0.594-1.64,1.156-3.189,2.441-4.211l0.009-0.007l0.004-0.004c0.004-0.005,0.404-0.332,1.074-0.534
		C18.25,0.62,18.369,0.638,18.117,0.764z M20.993,11.131c-0.002,0.02-0.002,0.039-0.004,0.06v0.005
		c-0.004,0.24-0.004,0.466,0.008,0.668c0.011,0.358,0.036,0.669,0.059,0.888c0,0,0,0,0,0.002c0.022,0.265-0.253,0.249-0.403-0.035
		c-0.014-0.035-0.029-0.069-0.044-0.106c-0.308-0.8-0.147-3.644-0.079-5.01c0.064-1.317,0.002-1.73-0.256-1.997
		c-0.063-0.065-0.024-0.136,0.063-0.103c0.602,0.236,0.719,0.893,0.789,1.372c0.129,0.862-0.087,2.688-0.129,4.109v-0.001
		C20.993,11.032,20.993,11.082,20.993,11.131z"/>
</g>
</svg>
