<?xml version="1.0" encoding="utf-8"?>
<!-- Generator: Adobe Illustrator 16.0.0, SVG Export Plug-In . SVG Version: 6.00 Build 0)  -->
<!DOCTYPE svg PUBLIC "-//W3C//DTD SVG 1.1//EN" "http://www.w3.org/Graphics/SVG/1.1/DTD/svg11.dtd">
<svg version="1.1" id="Capa_1" xmlns="http://www.w3.org/2000/svg" xmlns:xlink="http://www.w3.org/1999/xlink" x="0px" y="0px"
	 width="25px" height="24.607px" viewBox="0 0 25 24.607" enable-background="new 0 0 25 24.607" xml:space="preserve">
<g>
	<path fill="#003244" d="M24.732,18.389c0-1.676-1.058-2.504-2.688-2.504c-0.873,0-1.768,0.22-2.546,0.615l0.138,1.423
		c0.567-0.368,1.252-0.687,1.975-0.687c0.701,0,1.402,0.373,1.402,1.152c0,1.577-2.91,4.004-3.707,4.778v1.439H25v-1.354h-3.498
		C22.9,21.88,24.732,20.208,24.732,18.389z M9.863,0C3.946,0,0,4.252,0,10.132c0,5.543,4.02,10.131,9.863,10.131
		c5.808,0,9.827-4.588,9.827-10.131C19.69,4.252,15.744,0,9.863,0z M9.863,17.38c-4.208,0-6.074-3.797-6.074-7.248
		c0-3.676,2.24-7.247,6.074-7.247c3.798,0,6.033,3.571,6.033,7.247C15.896,13.583,14.04,17.38,9.863,17.38z"/>
</g>
</svg>
