<?xml version="1.0" encoding="utf-8"?>
<!-- Generator: Adobe Illustrator 16.0.0, SVG Export Plug-In . SVG Version: 6.00 Build 0)  -->
<!DOCTYPE svg PUBLIC "-//W3C//DTD SVG 1.1//EN" "http://www.w3.org/Graphics/SVG/1.1/DTD/svg11.dtd">
<svg version="1.1" id="Capa_1" xmlns="http://www.w3.org/2000/svg" xmlns:xlink="http://www.w3.org/1999/xlink" x="0px" y="0px"
	 width="78.5px" height="21.508px" viewBox="0 0 78.5 21.508" enable-background="new 0 0 78.5 21.508" xml:space="preserve">
<g>
	<path fill="#003043" d="M23.026,9.562c-1.175,1.7-2.814,3.244-4.223,3.244c-0.599,0.021-0.864-0.323-0.854-1.015
		c0-0.411,0.098-0.994,0.18-1.286c1.331-0.673,2.686-1.427,3.896-2.676c0.673-0.724,1.125-1.448,1.146-2.2
		c0.012-0.705-0.433-1.067-1.311-1.078c-1.277-0.016-2.81,0.855-3.804,1.916c-1.307,1.426-2.312,3.441-2.338,5.232
		c-0.015,1.268,0.588,2.278,2.221,2.217c1.748-0.046,3.468-1.396,4.351-2.371c-0.104,0.418-0.176,0.811-0.176,1.133
		c0,1.129,0.562,1.928,1.668,2.268l0.222-0.104c-0.1-0.304-0.125-0.626-0.1-0.98c0.077-1.098,0.51-2.334,1.153-3.961
		c1.219-3.073,2.996-6.592,3.777-8.666l-1.863,0.354c-0.289,0.062-0.473,0.281-0.57,0.491c-0.898,1.913-1.822,3.95-2.972,6.603
		C23.294,8.967,23.171,9.266,23.026,9.562z M21.28,5.466c0.292,0,0.391,0.198,0.391,0.452c0,1.199-1.48,2.73-3.366,3.852
		C18.778,7.912,20.113,5.448,21.28,5.466z"/>
	<path fill="#003043" d="M53.128,12.609c0,0.852,0.539,1.375,1.567,1.346c1.066-0.02,2.151-0.654,3.048-1.519
		c0.173,0.915,0.832,1.581,2.178,1.532c1.401-0.053,2.744-0.928,3.675-1.947c0,0.1,0,0.2,0,0.293c0,0.943,0.486,1.648,1.562,1.648
		c1.159,0,2.493-0.875,3.546-2.372l0.036,0.017c-0.098,0.355-0.212,0.96-0.228,1.359c-0.017,1.135,0.653,1.787,1.588,1.975
		l0.229-0.093c-0.344-0.821,0.135-2.862,0.332-3.544c0.695-2.237,1.801-4.794,2.439-6.121c-0.291-0.249-0.974-0.418-1.701-0.449
		c-2.409-0.09-4.834,0.906-6.603,4.035c-0.303,0.545-0.638,1.174-0.883,1.836c-0.251,0.334-0.515,0.633-0.626,0.742
		c-0.638,0.615-1.547,1.406-2.471,1.416c-0.524,0.011-0.815-0.357-0.803-1.013c0.009-2.506,2.221-6.31,3.721-6.321
		c0.411,0,0.589,0.181,0.589,0.533c0,0.414-0.283,0.989-0.689,1.357l0.176,0.16c1.008-0.385,1.942-1.088,1.947-1.834
		c0-0.85-0.979-1.008-1.852-1.002c-1.172,0.018-2.63,0.59-3.8,1.867c-1.467,1.602-2.225,3.523-2.372,4.895
		c-0.67,0.783-1.421,1.313-1.919,1.32c-0.282,0.012-0.483-0.143-0.487-0.438c0-0.26,0.148-0.792,0.409-1.484
		c0.647-1.613,1.585-3.625,2.737-6.016c0,0-1.754,0.295-2.005,0.368c-0.269,0.065-0.474,0.241-0.589,0.483
		c-0.75,1.589-1.642,3.427-2.197,4.799C53.34,11.303,53.128,12.121,53.128,12.609z M69.551,5.76c0.558-0.265,1.026-0.279,1.42-0.199
		c-0.149,0.311-0.825,1.669-1.35,2.893c-0.83,1.92-2.079,3.856-3.235,4.131c-0.399,0.116-0.633-0.056-0.628-0.453
		C65.792,10.434,67.664,6.645,69.551,5.76z"/>
	<path fill="#003043" d="M28.47,6.467c-1.308,1.426-2.318,3.441-2.34,5.232c-0.012,1.242,0.643,2.278,2.315,2.217
		c1.795-0.046,3.431-1.085,4.843-2.568c-0.355,0.951-0.66,1.77-0.844,2.211c-0.525,1.311-0.911,2.371-1.716,2.984l0.088,0.16
		c2.366,0.137,3.251-1.525,4.225-4.235c0.973-2.716,1.797-5.077,2.438-6.712c1.037,0,2.503,0.035,3.324-0.148
		c-2.146,0.951-3.965,4.371-3.75,6.625c0.096,0.998,0.692,1.684,1.961,1.684c2.461,0,4.531-2.91,5.319-4.83
		c0.454-1.102,0.754-2.041,0.802-2.984c0.587-0.103,1.145-0.203,1.427-0.244c0.536-0.076,0.433,0.52,0.262,0.97
		c-1.003,2.808-2.747,6.89-2.755,6.95h1.924c0.831-1.732,1.348-2.84,2.011-4.02c0.802-1.387,2.588-3.672,3.3-3.678
		c0.252,0,0.318,0.161,0.254,0.404c-0.124,0.943-2.426,4.543-2.387,6.321c0.021,1.163,0.634,1.864,1.703,2.131l0.222-0.126
		c-0.136-0.252-0.153-0.568-0.156-0.94c-0.018-1.187,0.946-3.265,1.319-4.071c0.596-1.265,1.653-3.115,1.584-4.127
		c-0.036-0.498-0.404-0.938-1.255-0.945c-1.566-0.008-3.125,1.515-4.434,3.555l-0.035-0.007c0.523-1.189,0.933-2.288,0.92-2.826
		c-0.011-0.49-0.29-0.683-0.877-0.683c-0.412,0.012-0.976,0.169-1.529,0.318c-0.774,0.199-1.589,0.411-2.484,0.598
		c-0.548,0.074-0.74,0.176-0.724,0.373c0.111,3.118-2.009,6.783-3.423,6.795c-0.607,0-0.745-0.443-0.745-1.059
		c-0.007-2.156,1.767-5.775,3.497-6.35c0.149-0.043,0.299-0.075,0.398-0.107l0.219-0.58c-0.367,0.076-1.24,0.09-1.7,0.102
		c-0.464,0-3.802,0-3.802,0c1.004-2.393,2.413-3.944,4.478-4.037c1.28-0.041,2.145,0.441,2.22,1.176
		c0.053,0.625-0.119,1.133-0.619,1.65l0.142,0.141c1.131-0.533,1.908-1.442,1.913-2.06c0.02-0.96-1.139-1.552-2.985-1.532
		c-2.348,0.015-5.237,0.545-7.255,4.73c-0.604,0.093-1.152,0.321-1.608,0.809l0.082,0.186c0.329-0.117,0.72-0.137,1.158-0.137
		c-0.282,0.686-0.842,2.176-1.403,3.706c-1.698,2.248-3.409,3.318-4.66,3.318c-0.684,0.021-0.958-0.356-0.965-1.015
		c-0.009-0.411,0.094-0.986,0.178-1.286c1.335-0.673,2.68-1.427,3.898-2.676c0.666-0.724,1.128-1.448,1.147-2.2
		c0.008-0.705-0.424-1.067-1.317-1.078C31,4.535,29.469,5.406,28.47,6.467z M31.688,5.466c0.29,0,0.409,0.198,0.409,0.452
		c-0.013,1.199-1.481,2.73-3.382,3.852C29.193,7.912,30.525,5.448,31.688,5.466z"/>
	<path fill="#003043" d="M58.506,3.326c0.532-0.006,1.071-0.504,1.187-1.092c0.132-0.607-0.22-1.074-0.761-1.061
		c-0.528,0.002-1.062,0.49-1.188,1.095C57.629,2.862,57.961,3.339,58.506,3.326z"/>
	<path fill="#003043" d="M39.25,20.451C19.782,20.451,0,20.688,0,20.976c0,0.284,19.782,0.532,39.25,0.532
		c19.472,0,39.25-0.248,39.25-0.532C78.5,20.688,58.722,20.451,39.25,20.451z"/>
	<path fill="#003043" d="M7.805,6.576L7.929,6.47c-0.176-0.288-0.242-0.798-0.23-1.104c0.064-2.535,2.743-3.974,6.926-3.974
		c0,0,1.039,0,2.314,0c-1.346,0.785-2.473,1.822-3.339,3.781c-0.371,0.842-2.144,5.375-2.868,7.41
		c-0.899,2.424-1.474,3.523-2.188,3.928l0.123,0.218c2.004,0.126,3.2-0.901,3.972-2.794c0.733-1.789,1.706-4.639,2.18-5.906
		c1.542-4.076,2.216-5.789,3.447-6.637c1.71-0.01,3.363-0.01,3.363-0.01c1.841-0.05,2.624-0.506,3.201-1.218L24.698,0
		c-0.459,0.249-1.459,0.299-2.305,0.3h-8.31c-4.676,0-7.547,1.537-8.011,3.823C5.842,5.23,6.458,6.428,7.805,6.576z"/>
</g>
</svg>
