<?xml version="1.0" encoding="utf-8"?>
<!-- Generator: Adobe Illustrator 16.0.0, SVG Export Plug-In . SVG Version: 6.00 Build 0)  -->
<!DOCTYPE svg PUBLIC "-//W3C//DTD SVG 1.1//EN" "http://www.w3.org/Graphics/SVG/1.1/DTD/svg11.dtd">
<svg version="1.1"
	 id="svg2" xmlns:dc="http://purl.org/dc/elements/1.1/" xmlns:rdf="http://www.w3.org/1999/02/22-rdf-syntax-ns#" xmlns:cc="http://creativecommons.org/ns#" xmlns:svg="http://www.w3.org/2000/svg"
	 xmlns="http://www.w3.org/2000/svg" xmlns:xlink="http://www.w3.org/1999/xlink" x="0px" y="0px" width="52px" height="19.473px"
	 viewBox="0 0 52 19.473" enable-background="new 0 0 52 19.473" xml:space="preserve">
<g id="layer1" transform="translate(-100.74148,-410.36809)">
	<g id="g3009" transform="matrix(0.03543307,0,0,0.03543307,-23.459132,2.0373914)">
		<g id="Camada_x0020_1">
			<g id="_299199640">
				<path id="path2994" fill="#660099" d="M3975.274,12021.282v-265.576c0-27.037,17.997-46.688,42.747-46.688h40.019
					c24.694,0,42.609,19.568,42.609,46.688v265.576c0,27.037-17.915,46.66-42.609,46.66h-40.019
					C3993.271,12067.942,3975.274,12048.402,3975.274,12021.282z"/>
				<path id="path2996" fill="#660099" d="M4109.44,11591.912c0,39.026-31.585,70.61-70.638,70.61
					c-38.999,0-70.611-31.584-70.611-70.61s31.612-70.639,70.611-70.639C4077.855,11521.273,4109.44,11552.886,4109.44,11591.912z"
					/>
				<path id="path2998" fill="#660099" d="M4590.845,11888.163c0-100.707,83.509-182.591,186.311-182.591
					c102.692,0,186.311,81.884,186.311,182.591c0,100.68-83.619,182.591-186.311,182.591
					C4674.464,12070.754,4590.845,11988.843,4590.845,11888.163 M4704.23,11888.163c0,40.156,32.632,72.898,72.926,72.898
					c40.184,0,72.926-32.742,72.926-72.898c0-40.267-32.743-73.009-72.926-73.009
					C4736.862,11815.154,4704.23,11847.896,4704.23,11888.163z"/>
				<path id="path3000" fill="#660099" d="M4362.641,12060.887c-22.986,0-45.696-4.189-56.885-24.611
					c-11.135-20.34-136.647-240.413-146.458-257.776c-8.985-15.848-5.76-43.326,16.261-54.322
					c13.505-6.67,20.175-10.115,31.916-16.013c20.781-10.419,46.798-8.214,63.114,20.229
					c9.812,17.005,91.502,180.385,91.502,180.385h0.771c0,0,81.801-163.298,91.612-180.385
					c16.316-28.443,42.389-30.648,63.169-20.229c11.796,5.897,18.411,9.343,31.916,16.013
					c21.994,10.914,25.356,38.475,16.261,54.322c-12.017,21.194-134.772,237.656-146.458,257.776
					C4407.51,12056.422,4385.461,12060.887,4362.641,12060.887z"/>
				<path id="path3002" fill="#660099" d="M3713.17,12060.887c-23.013,0-45.723-4.189-56.803-24.611
					c-11.135-20.34-136.647-240.413-146.486-257.776c-8.985-15.848-5.705-43.326,16.344-54.322
					c13.34-6.67,20.037-10.115,31.86-16.013c20.698-10.309,46.743-8.131,63.087,20.229c9.812,17.005,91.419,180.385,91.419,180.385
					h0.854c0,0,81.773-163.298,91.53-180.385c16.316-28.443,42.388-30.648,63.087-20.229c11.851,5.897,18.521,9.453,31.888,16.013
					c22.159,10.914,25.356,38.475,16.426,54.322c-12.127,21.194-134.772,237.656-146.624,257.776
					c-11.741,20.146-33.762,24.611-56.665,24.611H3713.17z"/>
			</g>
		</g>
	</g>
</g>
</svg>
