<?xml version="1.0" encoding="utf-8"?>
<!-- Generator: Adobe Illustrator 16.0.0, SVG Export Plug-In . SVG Version: 6.00 Build 0)  -->
<!DOCTYPE svg PUBLIC "-//W3C//DTD SVG 1.1//EN" "http://www.w3.org/Graphics/SVG/1.1/DTD/svg11.dtd">
<svg version="1.1" id="Layer_1" xmlns="http://www.w3.org/2000/svg" xmlns:xlink="http://www.w3.org/1999/xlink" x="0px" y="0px"
	 width="156px" height="156px" viewBox="0 0 156 156" enable-background="new 0 0 156 156" xml:space="preserve">
<circle fill="#00A5B7" cx="78" cy="78" r="78"/>
<circle fill="none" stroke="#FFFFFF" stroke-width="2" stroke-miterlimit="10" cx="78" cy="78" r="73.5"/>
<g>
	<path fill="#FFFFFF" d="M105.113,111.027H51.324c-5.305,0-9.621-4.315-9.621-9.62V85.83c0-1.615,1.31-2.924,2.924-2.924
		c1.615,0,2.924,1.309,2.924,2.924v15.578c0,2.08,1.693,3.771,3.773,3.771h53.789c2.081,0,3.775-1.692,3.775-3.771V85.83
		c0-1.615,1.31-2.924,2.924-2.924c1.615,0,2.924,1.309,2.924,2.924v15.578C114.736,106.712,110.419,111.027,105.113,111.027z
		 M78.157,99.188c-2.49,0-4.963-0.948-6.848-2.832L59.196,84.242c-0.032-0.032-0.139-0.147-0.169-0.18
		c-2.273-2.262-2.277-6.118,0.087-8.495c1.189-1.169,2.689-1.817,4.37-1.781l3.557,0.005l0.003-25.896
		c0-1.615,1.31-2.923,2.924-2.923c0,0,0,0,0.001,0c1.614,0,2.923,1.31,2.923,2.925L72.889,76.72c0,0.776-0.309,1.52-0.858,2.068
		c-0.548,0.547-1.292,0.855-2.065,0.855c-0.002,0-0.002,0-0.004,0l-6.5-0.009c-0.068-0.018-0.148,0.006-0.222,0.079
		c-0.071,0.072-0.074,0.219,0.014,0.308c0.032,0.032,0.14,0.149,0.171,0.183l11.92,11.917c1.617,1.615,4.087,1.613,5.608,0.097
		l12.295-12.4c0-0.064-0.022-0.12-0.067-0.164c-0.056-0.057-0.137-0.09-0.154-0.068l-6.601-0.001c-1.615,0-2.924-1.31-2.924-2.924
		V47.896c0-1.614,1.31-2.924,2.924-2.924c1.614,0,2.924,1.31,2.924,2.924v25.84l3.641,0.002c1.556-0.045,3.169,0.621,4.33,1.784
		c1.146,1.148,1.777,2.677,1.774,4.304c-0.001,1.624-0.635,3.146-1.782,4.289L85.18,96.256
		C83.218,98.215,80.678,99.188,78.157,99.188z"/>
</g>
</svg>
