<?xml version="1.0" encoding="utf-8"?>
<!-- Generator: Adobe Illustrator 16.0.0, SVG Export Plug-In . SVG Version: 6.00 Build 0)  -->
<!DOCTYPE svg PUBLIC "-//W3C//DTD SVG 1.1//EN" "http://www.w3.org/Graphics/SVG/1.1/DTD/svg11.dtd">
<svg version="1.1" id="Layer_1" xmlns="http://www.w3.org/2000/svg" xmlns:xlink="http://www.w3.org/1999/xlink" x="0px" y="0px"
	 width="156px" height="156px" viewBox="0 0 156 156" enable-background="new 0 0 156 156" xml:space="preserve">
<circle fill="#0096A7" cx="78" cy="78" r="78"/>
<circle fill="none" stroke="#FFFFFF" stroke-width="2" stroke-miterlimit="10" cx="78" cy="78" r="73.5"/>
<g>
	<path fill-rule="evenodd" clip-rule="evenodd" fill="#FFFFFF" d="M80.664,40.534c0.829,0.156,1.408,0.686,1.98,1.261
		c3.851,3.868,7.717,7.722,11.573,11.585c0.722,0.723,0.968,1.598,0.69,2.583c-0.277,0.984-0.946,1.601-1.932,1.851
		c-0.265,0.067-0.553,0.085-0.826,0.064c-3.109-0.233-5.601,0.898-7.338,3.478c-3.174,4.712-0.293,11.158,5.332,12.025
		c4.221,0.65,8.206-2.236,8.875-6.467c0.109-0.687,0.084-1.4,0.064-2.101c-0.031-1.107,0.367-1.982,1.339-2.522
		c0.98-0.544,1.954-0.447,2.864,0.208c0.155,0.111,0.296,0.243,0.431,0.377c2.085,2.082,4.172,4.163,6.25,6.251
		c1.44,1.447,0.806,3.862-1.154,4.379c-0.945,0.25-1.795,0.027-2.497-0.66c-0.875-0.858-1.735-1.73-2.602-2.597
		c-0.036-0.036-0.076-0.068-0.133-0.119c-1.392,3.542-3.792,6.104-7.298,7.569c-2.568,1.073-5.231,1.267-7.942,0.638
		c-5.328-1.235-9.361-5.781-9.968-11.161c-0.693-6.143,2.944-11.787,8.389-13.753c-2.161-2.161-4.337-4.337-6.527-6.527
		c-0.021,0.021-0.097,0.089-0.168,0.16c-3.829,3.829-7.658,7.659-11.488,11.487c-1.29,1.289-3.355,1-4.199-0.585
		c-0.252-0.473-0.355-0.982-0.283-1.513c0.246-1.823-0.127-3.525-1.122-5.051c-1.699-2.606-4.146-3.846-7.252-3.646
		c-3.585,0.23-6.581,3.066-7.088,6.617c-0.597,4.186,2.113,8.043,6.244,8.827c0.716,0.136,1.475,0.171,2.2,0.105
		c1.34-0.121,2.346,0.641,2.738,1.498c0.467,1.022,0.232,2.276-0.612,3.122c-1.91,1.914-3.823,3.824-5.734,5.735
		c-1.856,1.856-3.713,3.712-5.568,5.569c-0.048,0.048-0.093,0.099-0.123,0.132c2.189,2.189,4.369,4.369,6.564,6.564
		c1.206-3.162,3.291-5.596,6.335-7.15c3.049-1.557,6.251-1.854,9.538-0.919c5.081,1.445,8.756,5.818,9.344,11.07
		c0.69,6.168-3.089,11.88-8.468,13.709c2.146,2.146,4.304,4.305,6.518,6.518c0.02-0.033,0.057-0.129,0.124-0.195
		c3.704-3.708,7.411-7.415,11.115-11.122c0.122-0.123,0.226-0.264,0.343-0.392c0.789-0.873,2.064-1.123,3.123-0.613
		c1.065,0.513,1.641,1.616,1.441,2.799c-0.146,0.876-0.036,1.734,0.183,2.579c0.8,3.097,3.331,5.349,6.498,5.807
		c4.254,0.615,8.278-2.452,8.812-6.718c0.514-4.099-2.107-7.798-6.144-8.674c-0.805-0.175-1.618-0.194-2.436-0.129
		c-1.109,0.088-2.131-0.501-2.583-1.487c-0.462-1.011-0.252-2.183,0.531-2.96c1.221-1.213,2.443-2.423,3.662-3.64
		c1.686-1.681,3.365-3.371,5.054-5.049c0.742-0.738,1.64-0.974,2.636-0.669c0.997,0.306,1.611,1.007,1.797,2.037
		c0.16,0.887-0.095,1.669-0.735,2.311c-1.589,1.595-3.183,3.185-4.775,4.776c-0.067,0.067-0.146,0.122-0.251,0.207
		c3.594,1.432,6.15,3.863,7.595,7.398c1.042,2.55,1.222,5.193,0.584,7.872c-1.28,5.389-5.826,9.375-11.293,9.945
		c-5.797,0.605-11.447-2.695-13.616-8.425c-0.083,0.078-0.157,0.143-0.226,0.213c-3.197,3.195-6.393,6.392-9.589,9.587
		c-1.147,1.148-2.725,1.151-3.869,0.007c-3.977-3.977-7.954-7.954-11.93-11.93c-0.732-0.733-0.985-1.617-0.703-2.605
		c0.284-0.995,0.964-1.652,1.98-1.868c0.456-0.097,0.947-0.044,1.422-0.032c1.896,0.049,3.608-0.489,5.082-1.68
		c2.137-1.727,3.117-3.993,2.953-6.732c-0.208-3.5-2.997-6.543-6.466-7.095c-4.151-0.661-7.974,1.879-8.937,5.936
		c-0.2,0.844-0.239,1.7-0.164,2.562c0.099,1.14-0.507,2.194-1.552,2.685c-1.02,0.479-2.178,0.267-2.998-0.553
		c-4.008-4.007-8.014-8.016-12.024-12.021c-0.43-0.429-0.673-0.945-0.811-1.524c0-0.261,0-0.521,0-0.782
		c0.168-0.825,0.711-1.394,1.284-1.963c3.001-2.983,5.988-5.981,8.984-8.97c0.071-0.07,0.18-0.102,0.272-0.152
		c-6.012-2.22-9.326-8.251-8.555-14.045c0.729-5.485,4.795-9.885,10.154-11.044c2.636-0.57,5.224-0.361,7.715,0.678
		c3.534,1.474,5.946,4.057,7.355,7.682c0.085-0.113,0.134-0.198,0.201-0.265c3.188-3.19,6.372-6.384,9.575-9.56
		c0.286-0.283,0.685-0.456,1.041-0.664c0.122-0.071,0.272-0.091,0.41-0.134C80.143,40.534,80.403,40.534,80.664,40.534z"/>
</g>
</svg>
