<?xml version="1.0" encoding="utf-8"?>
<!-- Generator: Adobe Illustrator 16.0.0, SVG Export Plug-In . SVG Version: 6.00 Build 0)  -->
<!DOCTYPE svg PUBLIC "-//W3C//DTD SVG 1.1//EN" "http://www.w3.org/Graphics/SVG/1.1/DTD/svg11.dtd">
<svg version="1.1" id="Layer_1" xmlns="http://www.w3.org/2000/svg" xmlns:xlink="http://www.w3.org/1999/xlink" x="0px" y="0px"
	 width="156px" height="156px" viewBox="0 0 156 156" enable-background="new 0 0 156 156" xml:space="preserve">
<circle fill="#007486" cx="78" cy="78" r="78"/>
<g>
	<path fill="#FFFFFF" d="M55.059,96.206c-1.137,0-2.058,0.923-2.058,2.058c0,1.139,0.921,2.058,2.058,2.058h6.096v4.996
		c0,1.137,0.921,2.058,2.058,2.058c1.137,0,2.059-0.921,2.059-2.058v-4.996h10.209v4.996c0,1.137,0.921,2.058,2.058,2.058
		s2.058-0.921,2.058-2.058v-4.996H90.91v4.996c0,1.137,0.921,2.058,2.058,2.058s2.058-0.921,2.058-2.058v-4.996h6.316
		c1.137,0,2.058-0.919,2.058-2.058c0-1.135-0.921-2.058-2.058-2.058h-6.316V87.76h6.316c1.137,0,2.058-0.921,2.058-2.058
		c0-1.137-0.921-2.058-2.058-2.058h-6.316v-8.885h6.316c1.137,0,2.058-0.923,2.058-2.058c0-1.138-0.921-2.058-2.058-2.058h-6.316
		v-5.216c0-1.139-0.921-2.058-2.058-2.058s-2.058,0.919-2.058,2.058v5.216H79.597v-5.216c0-1.139-0.921-2.058-2.058-2.058
		s-2.058,0.919-2.058,2.058v5.216H65.272v-5.216c0-1.139-0.921-2.058-2.059-2.058c-1.137,0-2.058,0.919-2.058,2.058v5.216h-6.096
		c-1.137,0-2.058,0.92-2.058,2.058c0,1.135,0.921,2.058,2.058,2.058h6.096v8.885h-6.096c-1.137,0-2.058,0.921-2.058,2.058
		c0,1.137,0.921,2.058,2.058,2.058h6.096v8.446H55.059z M79.597,87.76H90.91v8.446H79.597V87.76z M79.597,83.644v-8.885H90.91v8.885
		H79.597z M75.481,83.644H65.272v-8.885h10.209V83.644z M75.481,87.76v8.446H65.272V87.76H75.481z"/>
	<path fill="#FFFFFF" d="M100.09,38.843H55.91c-7.944,0-14.407,6.462-14.407,14.405v40.488c0,1.592,1.291,2.881,2.881,2.881
		s2.881-1.29,2.881-2.881V59.435h55.723c1.591,0,2.881-1.291,2.881-2.881c0-1.592-1.291-2.881-2.881-2.881H47.266v-0.424
		c0-4.766,3.877-8.643,8.644-8.643h44.18c4.767,0,8.644,3.876,8.644,8.643v49.502c0,4.768-3.877,8.644-8.644,8.644H55.91
		c-4.767,0-8.644-3.876-8.644-8.644v-0.473c0-1.59-1.291-2.881-2.881-2.881s-2.881,1.291-2.881,2.881v0.473
		c0,7.945,6.463,14.407,14.407,14.407h44.18c7.944,0,14.407-6.462,14.407-14.407V53.248
		C114.497,45.305,108.034,38.843,100.09,38.843z"/>
</g>
<circle fill="none" stroke="#FFFFFF" stroke-width="2" stroke-miterlimit="10" cx="78" cy="78" r="73.5"/>
</svg>
